<?xml version="1.0" encoding="UTF-8" standalone="no"?>
<svg
   xmlns:dc="http://purl.org/dc/elements/1.1/"
   xmlns:cc="http://creativecommons.org/ns#"
   xmlns:rdf="http://www.w3.org/1999/02/22-rdf-syntax-ns#"
   xmlns:svg="http://www.w3.org/2000/svg"
   xmlns="http://www.w3.org/2000/svg"
   xmlns:sodipodi="http://sodipodi.sourceforge.net/DTD/sodipodi-0.dtd"
   xmlns:inkscape="http://www.inkscape.org/namespaces/inkscape"
   viewBox="0.0 0.0 348.0 348.0"
   fill="none"
   id="svg2"
   version="1.1"
   inkscape:version="0.91 r13725"
   sodipodi:docname="Simon's Stages.svg">
  <metadata
     id="metadata12">
    <rdf:RDF>
      <cc:Work
         rdf:about="">
        <dc:format>image/svg+xml</dc:format>
        <dc:type
           rdf:resource="http://purl.org/dc/dcmitype/StillImage" />
      </cc:Work>
    </rdf:RDF>
  </metadata>
  <defs
     id="defs10" />
  <sodipodi:namedview
     pagecolor="#ffffff"
     bordercolor="#666666"
     borderopacity="1"
     objecttolerance="10"
     gridtolerance="10"
     guidetolerance="10"
     inkscape:pageopacity="0"
     inkscape:pageshadow="2"
     inkscape:window-width="1440"
     inkscape:window-height="785"
     id="namedview8"
     showgrid="false"
     inkscape:zoom="0.95906437"
     inkscape:cx="254.52336"
     inkscape:cy="60.450348"
     inkscape:window-x="0"
     inkscape:window-y="1"
     inkscape:window-maximized="1"
     inkscape:current-layer="svg2" />
  <path
     d="M5.079 5.776h336.913v337.67H5.08z"
     stroke-width="2"
     stroke="#000"
     id="path4" />
  <path
     d="M282.734 40.554c0-8.376 6.966-15.165 15.56-15.165 4.126 0 8.084 1.597 11.001 4.441 2.918 2.844 4.558 6.702 4.558 10.724 0 8.376-6.966 15.165-15.56 15.165-8.593 0-15.559-6.79-15.559-15.165z"
     stroke-width="2"
     stroke="#000"
     id="path6" />
  <circle
     style="fill:none;fill-opacity:1;stroke:#000000;stroke-width:2.10443354;stroke-linejoin:miter;stroke-miterlimit:10;stroke-dasharray:none;stroke-opacity:1"
     id="path4142"
     cx="173.05084"
     cy="159.33899"
     r="28.661898" />
  <circle
     r="28.661898"
     cy="159.33899"
     cx="114.59322"
     id="circle4144"
     style="fill:none;fill-opacity:1;stroke:#000000;stroke-width:2.10443354;stroke-linejoin:miter;stroke-miterlimit:10;stroke-dasharray:none;stroke-opacity:1" />
  <circle
     style="fill:none;fill-opacity:1;stroke:#000000;stroke-width:2.10443354;stroke-linejoin:miter;stroke-miterlimit:10;stroke-dasharray:none;stroke-opacity:1"
     id="circle4146"
     cx="56.135597"
     cy="159.33899"
     r="28.661898" />
  <circle
     r="28.661898"
     cy="159.33899"
     cx="231.50848"
     id="circle4148"
     style="fill:none;fill-opacity:1;stroke:#000000;stroke-width:2.10443354;stroke-linejoin:miter;stroke-miterlimit:10;stroke-dasharray:none;stroke-opacity:1" />
  <circle
     style="fill:none;fill-opacity:1;stroke:#000000;stroke-width:2.10443354;stroke-linejoin:miter;stroke-miterlimit:10;stroke-dasharray:none;stroke-opacity:1"
     id="circle4150"
     cx="289.96613"
     cy="159.33899"
     r="28.661898" />
  <rect
     style="fill:#000000;fill-opacity:1;fill-rule:evenodd;stroke:#000000;stroke-width:0.68423873px;stroke-linecap:butt;stroke-linejoin:miter;stroke-opacity:1"
     id="rect4152"
     width="289.48544"
     height="1.1641989"
     x="28.596357"
     y="158.75739" />
  <circle
     r="28.661898"
     cy="283.49448"
     cx="173.05084"
     id="circle4164"
     style="fill:none;fill-opacity:1;stroke:#000000;stroke-width:1;stroke-linejoin:miter;stroke-miterlimit:10;stroke-dasharray:none;stroke-opacity:1" />
  <circle
     style="fill:none;fill-opacity:1;stroke:#000000;stroke-width:1;stroke-linejoin:miter;stroke-miterlimit:10;stroke-dasharray:none;stroke-opacity:1"
     id="circle4166"
     cx="114.59322"
     cy="283.49448"
     r="28.661898" />
  <circle
     r="28.661898"
     cy="283.49448"
     cx="56.135597"
     id="circle4168"
     style="fill:none;fill-opacity:1;stroke:#000000;stroke-width:1;stroke-linejoin:miter;stroke-miterlimit:10;stroke-dasharray:none;stroke-opacity:1" />
  <circle
     style="fill:none;fill-opacity:1;stroke:#000000;stroke-width:1;stroke-linejoin:miter;stroke-miterlimit:10;stroke-dasharray:none;stroke-opacity:1"
     id="circle4170"
     cx="231.50848"
     cy="283.49448"
     r="28.661898" />
  <circle
     r="28.661898"
     cy="283.49448"
     cx="289.96613"
     id="circle4172"
     style="fill:none;fill-opacity:1;stroke:#000000;stroke-width:1;stroke-linejoin:miter;stroke-miterlimit:10;stroke-dasharray:none;stroke-opacity:1" />
  <rect
     y="282.9155"
     x="27.861681"
     height="1.1589746"
     width="290.58615"
     id="rect4174"
     style="fill:#000000;fill-opacity:1;fill-rule:evenodd;stroke:#000000;stroke-width:0.15000001;stroke-linecap:butt;stroke-linejoin:miter;stroke-miterlimit:4;stroke-dasharray:none;stroke-opacity:1" />
  <g
     style="font-style:normal;font-weight:normal;font-size:15px;line-height:125%;font-family:sans-serif;letter-spacing:0px;word-spacing:0px;fill:#000000;fill-opacity:1;stroke:none;stroke-width:1px;stroke-linecap:butt;stroke-linejoin:miter;stroke-opacity:1"
     id="text4202">
    <path
       d="m 52.975593,267.39652 0,9.345 1.05,0 0,-4.125 1.815,0 2.07,4.125 1.185,0 -2.16,-4.155 c 1.125,-0.315 1.905,-1.38 1.905,-2.625 0,-0.93 -0.465,-1.815 -1.335,-2.25 -0.585,-0.3 -1.17,-0.315 -1.785,-0.315 l -2.745,0 z m 1.05,0.99 1.695,0 c 0.39,0 0.765,0.015 1.155,0.195 0.585,0.3 0.885,0.9 0.885,1.5 0,0.6 -0.285,1.155 -0.825,1.425 -0.36,0.18 -0.72,0.195 -1.095,0.195 l -1.815,0 0,-3.315 z"
       style="font-style:normal;font-variant:normal;font-weight:500;font-stretch:normal;font-size:15px;font-family:Inconsolata;-inkscape-font-specification:'Inconsolata Medium'"
       id="path4344" />
  </g>
  <g
     style="font-style:normal;font-weight:normal;font-size:15px;line-height:125%;font-family:sans-serif;letter-spacing:0px;word-spacing:0px;fill:#000000;fill-opacity:1;stroke:none;stroke-width:1px;stroke-linecap:butt;stroke-linejoin:miter;stroke-opacity:1"
     id="text4206">
    <path
       d="m 111.83865,267.39652 0,9.345 2.64,0 c 0.63,0 1.275,0 1.92,-0.27 1.005,-0.435 1.56,-1.35 1.56,-2.31 0,-1.095 -0.705,-2.07 -1.74,-2.415 0.825,-0.345 1.38,-1.17 1.38,-2.055 0,-0.84 -0.48,-1.65 -1.365,-2.025 -0.585,-0.255 -1.17,-0.27 -1.74,-0.27 l -2.655,0 z m 1.035,0.9 1.47,0 c 0.405,0 0.825,0 1.245,0.165 0.615,0.255 0.945,0.78 0.945,1.32 0,0.54 -0.315,1.05 -0.9,1.305 -0.435,0.18 -0.885,0.18 -1.305,0.18 l -1.455,0 0,-2.97 z m 0,3.855 1.53,0 c 0.465,0 0.93,0.015 1.395,0.24 0.69,0.315 1.065,0.99 1.065,1.665 0,0.675 -0.36,1.29 -1.005,1.59 -0.405,0.18 -0.795,0.18 -1.2,0.18 l -1.785,0 0,-3.675 z"
       style="font-style:normal;font-variant:normal;font-weight:500;font-stretch:normal;font-size:15px;font-family:Inconsolata;-inkscape-font-specification:'Inconsolata Medium'"
       id="path4335" />
  </g>
  <g
     style="font-style:normal;font-weight:normal;font-size:15px;line-height:125%;font-family:sans-serif;letter-spacing:0px;word-spacing:0px;fill:#000000;fill-opacity:1;stroke:none;stroke-width:1px;stroke-linecap:butt;stroke-linejoin:miter;stroke-opacity:1"
     id="text4210">
    <path
       d="m 173.51941,267.32152 c -1.455,0 -3.555,1.065 -3.555,4.815 0,3.6 2.01,4.77 3.555,4.77 1.11,0 2.145,-0.585 2.73,-1.545 l -0.765,-0.495 c -0.435,0.705 -1.185,1.125 -1.905,1.125 -1.38,0 -2.595,-1.425 -2.595,-3.96 0,-2.475 1.185,-3.87 2.505,-3.87 0.72,0 1.41,0.435 1.785,1.095 0.03,0.045 0.06,0.09 0.06,0.15 0,0.045 -0.015,0.075 -0.015,0.12 0,0.015 0,0.09 0.075,0.135 l 0.99,-0.48 c -0.495,-1.125 -1.62,-1.86 -2.865,-1.86 z"
       style="font-style:normal;font-variant:normal;font-weight:500;font-stretch:normal;font-size:15px;font-family:Inconsolata;-inkscape-font-specification:'Inconsolata Medium'"
       id="path4332" />
  </g>
  <g
     style="font-style:normal;font-weight:normal;font-size:15px;line-height:125%;font-family:sans-serif;letter-spacing:0px;word-spacing:0px;fill:#000000;fill-opacity:1;stroke:none;stroke-width:1px;stroke-linecap:butt;stroke-linejoin:miter;stroke-opacity:1"
     id="text4214">
    <path
       d="m 227.84153,267.39652 0,9.36 0.99,0 0,-7.005 1.89,3.705 0.39,0 2.025,-3.765 0,7.065 0.99,0 0,-9.36 -0.78,0 -2.355,4.575 -2.325,-4.575 -0.825,0 z"
       style="font-style:normal;font-variant:normal;font-weight:500;font-stretch:normal;font-size:15px;font-family:Inconsolata;-inkscape-font-specification:'Inconsolata Medium'"
       id="path4323" />
  </g>
  <g
     style="font-style:normal;font-weight:normal;font-size:15px;line-height:125%;font-family:sans-serif;letter-spacing:0px;word-spacing:0px;fill:#000000;fill-opacity:1;stroke:none;stroke-width:1px;stroke-linecap:butt;stroke-linejoin:miter;stroke-opacity:1"
     id="text4218">
    <path
       d="m 293.6582,272.09152 c 0,-0.87 -0.06,-2.025 -0.57,-3.03 -0.615,-1.2 -1.68,-1.755 -2.7,-1.755 -1.395,0 -3.36,1.08 -3.36,4.755 0,3.675 1.935,4.83 3.375,4.83 1.005,0 2.085,-0.57 2.7,-1.815 0.495,-1.005 0.555,-2.16 0.555,-2.985 z m -3.315,-3.81 c 0.66,0 1.47,0.39 1.905,1.485 0.315,0.78 0.36,1.68 0.36,2.46 0,0.615 -0.03,1.575 -0.42,2.37 -0.435,0.915 -1.155,1.275 -1.785,1.275 -1.05,0 -2.34,-0.975 -2.34,-3.945 0,-2.79 1.305,-3.645 2.28,-3.645 z"
       style="font-style:normal;font-variant:normal;font-weight:500;font-stretch:normal;font-size:15px;font-family:Inconsolata;-inkscape-font-specification:'Inconsolata Medium'"
       id="path4320" />
  </g>
  <g
     style="font-style:normal;font-weight:normal;font-size:15px;line-height:125%;font-family:sans-serif;letter-spacing:0px;word-spacing:0px;fill:#000000;fill-opacity:1;stroke:none;stroke-width:1px;stroke-linecap:butt;stroke-linejoin:miter;stroke-opacity:1"
     id="text4222">
    <path
       d="m 53.005593,294.30753 0,9.345 1.095,0 0,-4.125 1.83,0 c 0.585,0 1.14,-0.015 1.71,-0.3 0.87,-0.435 1.32,-1.335 1.32,-2.28 0,-0.945 -0.45,-1.86 -1.335,-2.31 -0.585,-0.315 -1.17,-0.33 -1.77,-0.33 l -2.85,0 z m 1.095,0.99 1.755,0 c 0.39,0 0.765,0.015 1.155,0.195 0.57,0.3 0.885,0.9 0.885,1.5 0,0.6 -0.3,1.155 -0.84,1.425 -0.36,0.18 -0.72,0.195 -1.08,0.195 l -1.89,0 0.015,-3.315 z"
       style="font-style:normal;font-variant:normal;font-weight:500;font-stretch:normal;font-size:15px;font-family:Inconsolata;-inkscape-font-specification:'Inconsolata Medium'"
       id="path4341" />
  </g>
  <g
     style="font-style:normal;font-weight:normal;font-size:15px;line-height:125%;font-family:sans-serif;letter-spacing:0px;word-spacing:0px;fill:#000000;fill-opacity:1;stroke:none;stroke-width:1px;stroke-linecap:butt;stroke-linejoin:miter;stroke-opacity:1"
     id="text4226">
    <path
       d="m 114.53636,294.21753 c -1.245,0 -3.615,0.78 -3.615,4.875 0,3.54 1.98,4.71 3.6,4.71 0.87,0 1.875,-0.315 2.745,-0.975 l 0,-3.645 -2.655,0 0,0.9 1.695,0 0,2.235 c -0.525,0.375 -1.125,0.57 -1.68,0.57 -0.615,0 -1.275,-0.24 -1.785,-0.825 -0.78,-0.885 -0.885,-2.205 -0.885,-3.18 0,-0.87 0.105,-1.71 0.465,-2.4 0.48,-0.915 1.32,-1.335 2.1,-1.335 0.84,0 1.5,0.465 1.785,1.095 0.045,0.105 0.09,0.225 0.21,0.3 l 0.735,-0.75 c -0.54,-0.975 -1.56,-1.575 -2.715,-1.575 z"
       style="font-style:normal;font-variant:normal;font-weight:500;font-stretch:normal;font-size:15px;font-family:Inconsolata;-inkscape-font-specification:'Inconsolata Medium'"
       id="path4338" />
  </g>
  <g
     style="font-style:normal;font-weight:normal;font-size:15px;line-height:125%;font-family:sans-serif;letter-spacing:0px;word-spacing:0px;fill:#000000;fill-opacity:1;stroke:none;stroke-width:1px;stroke-linecap:butt;stroke-linejoin:miter;stroke-opacity:1"
     id="text4230">
    <path
       d="m 170.35441,294.30753 0,9.36 5.595,0 0,-0.9 -4.515,0 0,-7.95 c 0,-0.135 0.045,-0.18 0.09,-0.27 0.015,-0.045 0.06,-0.12 0.045,-0.24 l -1.215,0 z"
       style="font-style:normal;font-variant:normal;font-weight:500;font-stretch:normal;font-size:15px;font-family:Inconsolata;-inkscape-font-specification:'Inconsolata Medium'"
       id="path4329" />
  </g>
  <g
     style="font-style:normal;font-weight:normal;font-size:15px;line-height:125%;font-family:sans-serif;letter-spacing:0px;word-spacing:0px;fill:#000000;fill-opacity:1;stroke:none;stroke-width:1px;stroke-linecap:butt;stroke-linejoin:miter;stroke-opacity:1"
     id="text4234">
    <path
       d="m 227.49653,294.30753 1.5,9.42 0.42,0 1.635,-6.18 1.605,6.18 0.42,0 1.47,-9.42 -0.885,0 -0.855,6.345 -1.515,-5.655 -0.315,0 -1.5,5.64 -1.02,-6.33 -0.96,0 z"
       style="font-style:normal;font-variant:normal;font-weight:500;font-stretch:normal;font-size:15px;font-family:Inconsolata;-inkscape-font-specification:'Inconsolata Medium'"
       id="path4326" />
  </g>
  <g
     style="font-style:normal;font-weight:normal;font-size:15px;line-height:125%;font-family:sans-serif;letter-spacing:0px;word-spacing:0px;fill:#000000;fill-opacity:1;stroke:none;stroke-width:1px;stroke-linecap:butt;stroke-linejoin:miter;stroke-opacity:1"
     id="text4238">
    <path
       d="m 287.0132,294.30753 2.88,5.67 0,3.675 1.14,0 0,-3.675 2.64,-5.67 -1.11,0 -2.07,4.53 -2.295,-4.53 -1.185,0 z"
       style="font-style:normal;font-variant:normal;font-weight:500;font-stretch:normal;font-size:15px;font-family:Inconsolata;-inkscape-font-specification:'Inconsolata Medium'"
       id="path4317" />
  </g>
  <g
     id="g4264"
     transform="translate(0,-8)">
    <rect
       y="31.334745"
       x="143.40254"
       height="58.245762"
       width="58.245762"
       id="rect4242"
       style="fill:#ffffff;fill-opacity:1;fill-rule:evenodd;stroke:#000000;stroke-width:2;stroke-linecap:butt;stroke-linejoin:miter;stroke-miterlimit:4;stroke-dasharray:none;stroke-opacity:1" />
    <circle
       r="2.7648306"
       cy="37.260593"
       cx="172.34109"
       id="path4244"
       style="fill:#000000;fill-opacity:1;stroke:#000000;stroke-width:2;stroke-linejoin:miter;stroke-miterlimit:4;stroke-dasharray:none;stroke-opacity:1" />
    <circle
       style="fill:#000000;fill-opacity:1;stroke:#000000;stroke-width:2;stroke-linejoin:miter;stroke-miterlimit:4;stroke-dasharray:none;stroke-opacity:1"
       id="circle4246"
       cx="172.34109"
       cy="84.391953"
       r="2.7648306" />
    <circle
       r="2.7648306"
       cy="53.849583"
       cx="150.22246"
       id="circle4248"
       style="fill:#000000;fill-opacity:1;stroke:#000000;stroke-width:2;stroke-linejoin:miter;stroke-miterlimit:4;stroke-dasharray:none;stroke-opacity:1" />
    <circle
       style="fill:#000000;fill-opacity:1;stroke:#000000;stroke-width:2;stroke-linejoin:miter;stroke-miterlimit:4;stroke-dasharray:none;stroke-opacity:1"
       id="circle4250"
       cx="195.56567"
       cy="53.849583"
       r="2.7648306" />
    <circle
       style="fill:#000000;fill-opacity:1;stroke:#000000;stroke-width:2;stroke-linejoin:miter;stroke-miterlimit:4;stroke-dasharray:none;stroke-opacity:1"
       id="circle4252"
       cx="150.22246"
       cy="67.434326"
       r="2.7648306" />
    <circle
       r="2.7648306"
       cy="67.434326"
       cx="195.56567"
       id="circle4254"
       style="fill:#000000;fill-opacity:1;stroke:#000000;stroke-width:2;stroke-linejoin:miter;stroke-miterlimit:4;stroke-dasharray:none;stroke-opacity:1" />
    <circle
       r="2.7648306"
       cy="77.756363"
       cx="158.70126"
       id="circle4256"
       style="fill:#000000;fill-opacity:1;stroke:#000000;stroke-width:2;stroke-linejoin:miter;stroke-miterlimit:4;stroke-dasharray:none;stroke-opacity:1" />
    <circle
       style="fill:#000000;fill-opacity:1;stroke:#000000;stroke-width:2;stroke-linejoin:miter;stroke-miterlimit:4;stroke-dasharray:none;stroke-opacity:1"
       id="circle4258"
       cx="186.71822"
       cy="77.756363"
       r="2.7648306" />
    <circle
       style="fill:#000000;fill-opacity:1;stroke:#000000;stroke-width:2;stroke-linejoin:miter;stroke-miterlimit:4;stroke-dasharray:none;stroke-opacity:1"
       id="circle4260"
       cx="158.70126"
       cy="44.264839"
       r="2.7648306" />
    <circle
       r="2.7648306"
       cy="44.264839"
       cx="186.71822"
       id="circle4262"
       style="fill:#000000;fill-opacity:1;stroke:#000000;stroke-width:2;stroke-linejoin:miter;stroke-miterlimit:4;stroke-dasharray:none;stroke-opacity:1" />
  </g>
  <rect
     y="23.334745"
     x="26.966103"
     height="58.245762"
     width="58.245762"
     id="rect4279"
     style="fill:#ffffff;fill-opacity:1;fill-rule:evenodd;stroke:#000000;stroke-width:2;stroke-linecap:butt;stroke-linejoin:miter;stroke-miterlimit:4;stroke-dasharray:none;stroke-opacity:1" />
  <g
     style="font-style:normal;font-weight:normal;font-size:40px;line-height:125%;font-family:sans-serif;letter-spacing:0px;word-spacing:0px;fill:#000000;fill-opacity:1;stroke:none;stroke-width:1px;stroke-linecap:butt;stroke-linejoin:miter;stroke-opacity:1"
     id="text4312">
    <path
       d="m 36.101692,70.889832 0,-1.25 3.75,-3.75 7.5,0 3.75,3.75 0,1.25 -15,0 z m -2.5,-2.5 0,-15 1.25,0 3.75,3.75 0,7.5 -3.75,3.75 -1.25,0 z m 18.75,0 -3.75,-3.75 0,-7.5 3.75,-3.75 1.25,0 0,15 -1.25,0 z m -13.75,-13.75 -2.5,-2.5 2.5,-2.5 10,0 2.5,2.5 -2.5,2.5 -10,0 z m -5,-3.75 0,-15 1.25,0 3.75,3.75 0,7.5 -3.75,3.75 -1.25,0 z m 18.75,0 -3.75,-3.75 0,-7.5 3.75,-3.75 1.25,0 0,15 -1.25,0 z m -12.5,-12.5 -3.75,-3.75 0,-1.25 15,0 0,1.25 -3.75,3.75 -7.5,0 z"
       style="font-style:normal;font-variant:normal;font-weight:normal;font-stretch:normal;font-family:Digits;-inkscape-font-specification:Digits"
       id="path4347" />
    <path
       d="m 61.101692,70.889832 0,-1.25 3.75,-3.75 7.5,0 3.75,3.75 0,1.25 -15,0 z m -2.5,-2.5 0,-15 1.25,0 3.75,3.75 0,7.5 -3.75,3.75 -1.25,0 z m 18.75,0 -3.75,-3.75 0,-7.5 3.75,-3.75 1.25,0 0,15 -1.25,0 z m -13.75,-13.75 -2.5,-2.5 2.5,-2.5 10,0 2.5,2.5 -2.5,2.5 -10,0 z m -5,-3.75 0,-15 1.25,0 3.75,3.75 0,7.5 -3.75,3.75 -1.25,0 z m 18.75,0 -3.75,-3.75 0,-7.5 3.75,-3.75 1.25,0 0,15 -1.25,0 z m -12.5,-12.5 -3.75,-3.75 0,-1.25 15,0 0,1.25 -3.75,3.75 -7.5,0 z"
       style="font-style:normal;font-variant:normal;font-weight:normal;font-stretch:normal;font-family:Digits;-inkscape-font-specification:Digits"
       id="path4349" />
  </g>
</svg>
