o Pedestal
v 0.50000000000000011 0.2 0.8660254037844386
v -0.49999999999999978 0.2 0.86602540378443871
v -0.49999999999999978 0 0.86602540378443871
v 0.50000000000000011 0 0.8660254037844386
v -1 0.2 1.2246063538223773E-16
v -1 0 1.2246063538223773E-16
v -0.50000000000000044 0.2 -0.86602540378443837
v -0.50000000000000044 0 -0.86602540378443837
v 0.50000000000000011 0.2 -0.8660254037844386
v 0.50000000000000011 0 -0.8660254037844386
v 1 0.2 0
v 1 0 0
vn 0.86602540378443871 0 1.4999999999999998
vn -0.86602540378443849 0 1.5
vn -1.7320508075688772 0 6.6613381477509392E-16
vn -0.86602540378443871 0 -1.5
vn 0.86602540378443837 0 -1.5000000000000004
vn 1.7320508075688772 0 0
vn 0 1 0
g Pedestal
f 1//1 2//2 3//2 4//1
f 2//2 5//3 6//3 3//2
f 5//3 7//4 8//4 6//3
f 7//4 9//5 10//5 8//4
f 9//5 11//6 12//6 10//5
f 11//6 1//1 4//1 12//6
f 1//7 11//7 9//7
f 1//7 9//7 7//7
f 1//7 7//7 5//7
f 5//7 2//7 1//7
